<svg xmlns="http://www.w3.org/2000/svg" width="400" height="400" viewBox="0 0 400 400">
  <rect width="400" height="400" fill="#f0f0f5"/>
  <g transform="translate(200,180)" fill="none" stroke="#c4c7d4" stroke-width="3" stroke-linecap="round" stroke-linejoin="round">
    <!-- Shoe outline -->
    <path d="M-70,20 C-70,20 -65,-25 -40,-35 C-20,-43 0,-40 20,-35 C40,-28 55,-15 65,-5 C75,5 80,15 80,20 L80,30 C80,35 75,40 70,40 L-60,40 C-65,40 -70,35 -70,30 Z" fill="#e0e0ea"/>
    <path d="M-60,40 L70,40" stroke="#c4c7d4" stroke-width="2"/>
    <ellipse cx="50" cy="5" rx="8" ry="5" fill="#c4c7d4" opacity="0.3"/>
    <ellipse cx="30" cy="-5" rx="8" ry="5" fill="#c4c7d4" opacity="0.3"/>
    <ellipse cx="10" cy="-10" rx="8" ry="5" fill="#c4c7d4" opacity="0.3"/>
  </g>
  <text x="200" y="260" text-anchor="middle" fill="#b0b3c0" font-family="Arial, sans-serif" font-size="16" font-weight="500">Product Image</text>
</svg>
